<?xml version="1.0" encoding="iso-8859-1"?>
<!-- Uploaded to: SVG Repo, www.svgrepo.com, Generator: SVG Repo Mixer Tools -->
<svg height="800px" width="800px" version="1.1" id="Layer_1" xmlns="http://www.w3.org/2000/svg" xmlns:xlink="http://www.w3.org/1999/xlink" 
	 viewBox="0 0 390.831 390.831" xml:space="preserve">
<path style="fill:#FFC10D;" d="M246.071,333.253l-101.366,31.418V153.277l24.372-7.564c22.238,50.941,66.651,112.162,76.412,125.22
	v62.319H246.071z"/>
<path style="fill:#56ACE0;" d="M255.833,22.174c-42.796,0-77.511,34.715-77.511,77.511c0,33.034,49.842,110.028,77.511,148.493
	c27.669-38.465,77.511-115.459,77.511-148.493C333.279,56.889,298.629,22.174,255.833,22.174z"/>
<path style="fill:#FFFFFF;" d="M255.833,65.552c-18.941,0-34.133,15.192-34.133,34.133s15.192,34.133,34.133,34.133
	s34.133-15.192,34.133-34.133S274.774,65.552,255.833,65.552z"/>
<path style="fill:#194F82;" d="M311.622,99.685c0-30.901-24.954-55.855-55.855-55.855s-55.855,24.954-55.855,55.855
	s24.954,55.855,55.855,55.855S311.622,130.586,311.622,99.685z M221.635,99.685c0-18.941,15.192-34.133,34.133-34.133
	s34.133,15.192,34.133,34.133s-15.192,34.133-34.133,34.133C237.408,133.818,221.635,118.691,221.635,99.685z"/>
<path style="fill:#FFFFFF;" d="M267.728,268.8v65.034l101.366,31.418V153.859l-26.57-8.145
	C321.901,193.422,280.721,250.893,267.728,268.8z"/>
<polygon style="fill:#56ACE0;" points="22.2,333.253 123.566,365.253 123.566,153.859 22.2,122.44 "/>
<path style="fill:#194F82;" d="M383.186,135.434l-33.099-10.279c3.232-9.762,4.848-18.424,4.848-25.988
	C354.936,44.412,310.523,0,255.768,0S156.6,44.412,156.6,99.168c0,7.564,1.616,16.808,4.848,26.57L133.78,134.4L14.637,96.97
	c-7.046-2.198-14.093,3.232-14.093,10.279v234.15c0,4.848,3.232,8.663,7.564,10.279l122.505,38.529c1.616,0.517,4.848,1.099,6.529,0
	L256.35,352.84l119.79,37.366c7.046,2.198,14.093-2.715,14.093-10.279V145.778C390.75,141.446,387.517,137.115,383.186,135.434z
	 M246.071,333.253l-101.366,31.418V153.277l24.372-7.564c22.238,50.941,66.651,112.162,76.412,125.22v62.319H246.071z
	 M369.093,365.253l-101.366-31.418V268.8c12.994-17.907,53.657-74.796,74.796-123.022l26.57,8.145V365.253z M255.833,22.174
	c42.796,0,77.511,34.715,77.511,77.511c0,33.034-49.842,110.028-77.511,148.493c-27.669-38.982-77.511-115.394-77.511-148.493
	C178.321,56.889,213.554,22.174,255.833,22.174z M123.566,365.253l-101.366-32V122.44l101.366,31.418V365.253z"/>
</svg>